<svg xmlns="http://www.w3.org/2000/svg" xmlns:xlink="http://www.w3.org/1999/xlink" version="1.1" id="Ebene_1" x="0px" y="0px" enable-background="new 0 0 16 16" xml:space="preserve" viewBox="1.51 2.39 13.04 9.45">
<g>
	<defs>
		<rect id="SVGID_1_" x="-0.438" y="0.576" width="23.883" height="14.848"/>
	</defs>
	<clipPath id="SVGID_2_">
		<use xlink:href="#SVGID_1_" overflow="visible"/>
	</clipPath>
	<path clip-path="url(#SVGID_2_)" fill="#004A93" d="M3.47,5.611c0,1.774,1.438,3.211,3.212,3.211c1.774,0,3.212-1.438,3.212-3.211   S8.456,2.399,6.682,2.399C4.908,2.399,3.47,3.837,3.47,5.611"/>
</g>
<polygon fill="#5782C2" points="3.471,8.833 3.471,2.409 3.461,2.409 1.51,5.604 1.51,8.833 "/>
<g>
	<path fill="#DD6A78" d="M10.337,2.396c1.771,0,3.208,1.438,3.208,3.212H7.13C7.13,3.833,8.566,2.396,10.337,2.396"/>
	<path fill="#389D8A" d="M6.698,2.396c1.778,0,3.218,1.438,3.218,3.212H3.479C3.479,3.833,4.92,2.396,6.698,2.396"/>
	<path fill="#FBBA00" d="M10.328,8.819c1.771,0,3.207-1.438,3.207-3.212H7.12C7.12,7.381,8.556,8.819,10.328,8.819"/>
	<path fill="#FFFFFF" d="M7.174,4.188c0,0.017,0.003,0.032,0.009,0.046c0.018,0.043,0.061,0.073,0.111,0.072   c0.067,0,0.122-0.053,0.122-0.119c0-0.066-0.056-0.122-0.123-0.121C7.227,4.067,7.174,4.121,7.174,4.188 M3.467,5.594   c0-0.163,0.014-0.324,0.04-0.483c0.006-0.039,0.014-0.078,0.021-0.119C3.7,5.055,3.868,5.116,4.037,5.178   C4.032,5.168,4.025,5.163,4.018,5.157C3.875,5.044,3.734,4.931,3.591,4.818c-0.017-0.013-0.02-0.023-0.015-0.044   C3.63,4.579,3.702,4.39,3.791,4.208C3.822,4.145,3.856,4.083,3.89,4.019c0.237,0.197,0.472,0.392,0.707,0.585   c-0.001-0.01-0.006-0.017-0.011-0.023c-0.183-0.25-0.366-0.5-0.55-0.75C4.024,3.815,4.021,3.803,4.035,3.787   c0.075-0.113,0.164-0.221,0.273-0.34c0.06-0.07,0.13-0.131,0.197-0.199C4.66,3.542,4.813,3.834,4.965,4.126   C4.951,4.021,4.934,3.917,4.916,3.813C4.873,3.556,4.83,3.299,4.786,3.042C4.784,3.026,4.787,3.017,4.801,3.007   c0.18-0.129,0.371-0.24,0.574-0.331c0.063-0.028,0.129-0.054,0.199-0.083c0.011,0.377,0.021,0.75,0.032,1.122   C5.611,3.71,5.612,3.705,5.614,3.7c0.137-0.402,0.275-0.805,0.412-1.207c0.006-0.018,0.012-0.032,0.035-0.037   c0.3-0.058,0.603-0.077,0.907-0.049c0.064,0.006,0.13,0.014,0.194,0.021c-0.001,0.006,0,0.008-0.001,0.009   c-0.006,0.009-0.013,0.018-0.02,0.027C6.879,2.813,6.632,3.17,6.414,3.547c-0.148,0.257-0.283,0.52-0.378,0.802   c-0.05,0.148-0.089,0.299-0.084,0.458c0.002,0.087,0.008,0.174,0.017,0.26c0.005,0.054,0.014,0.108,0.026,0.161   C6.004,5.266,6.029,5.274,6.06,5.252c0.035-0.024,0.07-0.05,0.097-0.083C6.2,5.117,6.241,5.062,6.276,5.003   C6.422,4.763,6.565,4.521,6.71,4.28c0.067-0.111,0.144-0.216,0.24-0.305c0.145-0.133,0.311-0.167,0.496-0.098   C7.543,3.914,7.619,3.98,7.688,4.056c0.036,0.04,0.073,0.079,0.11,0.118C7.823,4.199,7.854,4.21,7.891,4.211   c0.044,0,0.089,0.003,0.133,0.007c0.048,0.004,0.115,0.009,0.153,0.016c0.037,0.007,0.069,0.014,0.061,0.018   C8.13,4.311,7.932,4.371,7.823,4.427c-0.038,0.02-0.055,0.042-0.059,0.085C7.752,4.667,7.727,4.82,7.741,4.977   c0.007,0.082,0.021,0.163,0.055,0.239C7.85,5.337,7.988,5.365,8.071,5.33c0.047-0.02,0.092-0.049,0.13-0.083   c0.127-0.113,0.251-0.229,0.376-0.345c0.19-0.175,0.356-0.37,0.482-0.596C9.151,4.143,9.24,3.977,9.33,3.813   c0.005-0.009,0.012-0.021,0.017-0.029l0.007,0.009c0.004,0.006,0.006,0.013,0.011,0.019c0.192,0.284,0.335,0.591,0.431,0.921v0.005   C9.523,4.979,9.238,5.263,8.969,5.503C8.94,5.528,8.914,5.552,8.887,5.576c0,0.001,0.001,0.002,0.002,0.003   c0.32-0.201,0.643-0.4,0.969-0.604C9.869,5.05,9.881,5.119,9.891,5.188C9.91,5.342,9.922,5.449,9.92,5.604L9.892,5.616   C9.596,5.759,9.301,5.979,9.006,6.123C9,6.125,8.995,6.129,8.984,6.135C9.283,6.143,9.576,6.15,9.869,6.157   c0,0.007,0.002,0.01,0,0.012c-0.03,0.17-0.072,0.336-0.127,0.499L9.729,6.696C9.522,6.705,9.281,6.724,9.074,6.733   c-0.051,0.002-0.1,0.005-0.149,0.008L8.924,6.746C9.143,6.843,9.363,6.94,9.59,7.04C9.525,7.149,9.463,7.255,9.4,7.361   C9.395,7.369,9.385,7.374,9.377,7.379c-0.132,0.078-0.272,0.135-0.418,0.18C8.787,7.612,8.61,7.643,8.431,7.661   C8.296,7.675,8.163,7.676,8.029,7.652c-0.333-0.06-0.641-0.186-0.927-0.364c-0.009-0.005-0.018-0.01-0.027-0.015   c-0.004,0.007-0.007,0.013-0.01,0.019C6.941,7.55,6.815,7.808,6.689,8.065c-0.117,0.24-0.234,0.48-0.35,0.721   C6.33,8.806,6.32,8.812,6.299,8.808C6.262,8.802,6.223,8.799,6.187,8.792C6.109,8.778,6.032,8.763,5.953,8.748   C5.964,8.579,5.975,8.414,5.986,8.25C5.984,8.249,5.983,8.249,5.983,8.248C5.932,8.403,5.881,8.559,5.83,8.714   C5.69,8.676,5.555,8.629,5.425,8.573C5.42,8.57,5.416,8.558,5.417,8.55c0.002-0.023,0.007-0.045,0.012-0.068   c0.013-0.07,0.024-0.14,0.038-0.216c-0.013,0.01-0.021,0.015-0.028,0.021c-0.072,0.055-0.144,0.11-0.215,0.166   C5.21,8.463,5.2,8.468,5.186,8.458C5.071,8.401,4.952,8.334,4.826,8.237C4.822,8.234,4.818,8.233,4.813,8.23   c0.173-0.164,0.341-0.324,0.51-0.483C5.315,7.746,5.31,7.749,5.304,7.751C5.1,7.869,4.895,7.986,4.69,8.104   C4.671,8.116,4.659,8.114,4.643,8.1C4.51,7.99,4.388,7.87,4.274,7.741C4.238,7.699,4.202,7.655,4.164,7.61   c0.01-0.003,0.016-0.006,0.021-0.007c0.06-0.017,0.12-0.033,0.179-0.05C4.623,7.477,4.866,7.371,5.083,7.21   c0.144-0.107,0.288-0.214,0.432-0.322c0.05-0.038,0.099-0.076,0.152-0.117c-0.162,0.015-0.32,0.016-0.479,0.001   C5.029,6.757,4.874,6.725,4.722,6.674C4.41,6.568,4.146,6.388,3.917,6.155c-0.162-0.164-0.3-0.347-0.441-0.528   C3.469,5.619,3.467,5.604,3.467,5.594"/>
	<path fill="#004A93" d="M9.654,9.863l-0.162,0.213c-0.017,0.021-0.031,0.045-0.047,0.068c-0.014,0.023-0.027,0.048-0.039,0.074   c-0.01,0.025-0.02,0.051-0.026,0.078c-0.007,0.025-0.01,0.053-0.01,0.08c0,0.039,0.01,0.078,0.028,0.115   c0.019,0.035,0.043,0.068,0.074,0.094c0.029,0.023,0.063,0.039,0.102,0.049S9.65,10.65,9.688,10.65   c0.043,0,0.084-0.006,0.123-0.018c0.04-0.014,0.074-0.031,0.104-0.057c0.03-0.023,0.054-0.053,0.072-0.09   c0.018-0.035,0.025-0.076,0.025-0.123c0-0.033-0.006-0.066-0.016-0.1c-0.012-0.031-0.028-0.059-0.049-0.084   c-0.021-0.025-0.047-0.045-0.078-0.059c-0.029-0.016-0.063-0.022-0.1-0.022c-0.02,0-0.037,0.001-0.055,0.006   c-0.016,0.005-0.033,0.011-0.051,0.017l-0.002-0.002l0.215-0.256H9.654z M9.638,10.486c-0.015-0.008-0.028-0.018-0.039-0.027   c-0.011-0.012-0.021-0.025-0.026-0.039c-0.008-0.016-0.011-0.033-0.011-0.049c0-0.018,0.003-0.033,0.011-0.049   c0.006-0.014,0.016-0.027,0.026-0.039s0.024-0.02,0.039-0.025c0.015-0.008,0.031-0.012,0.049-0.012s0.034,0.004,0.048,0.012   c0.016,0.006,0.027,0.014,0.039,0.025s0.02,0.025,0.025,0.039c0.006,0.016,0.01,0.031,0.01,0.049c0,0.016-0.004,0.033-0.01,0.049   c-0.006,0.014-0.014,0.027-0.025,0.039c-0.012,0.01-0.023,0.02-0.039,0.027c-0.014,0.006-0.03,0.01-0.048,0.01   S9.652,10.492,9.638,10.486 M9.007,10.453l0.117-0.109c0.019-0.016,0.036-0.033,0.052-0.051s0.027-0.035,0.039-0.055   c0.01-0.02,0.018-0.04,0.023-0.063c0.006-0.021,0.008-0.047,0.008-0.072c0-0.041-0.008-0.078-0.023-0.111   C9.207,9.958,9.186,9.93,9.159,9.906S9.102,9.865,9.066,9.854c-0.035-0.014-0.073-0.02-0.112-0.02c-0.044,0-0.085,0.007-0.12,0.021   C8.797,9.869,8.768,9.889,8.742,9.914s-0.045,0.056-0.06,0.092c-0.015,0.035-0.022,0.075-0.023,0.119h0.217   c-0.003-0.012-0.003-0.021-0.003-0.032c0-0.024,0.007-0.047,0.021-0.065C8.908,10.01,8.929,10,8.955,10   c0.014,0,0.025,0.004,0.035,0.01c0.011,0.004,0.02,0.013,0.027,0.021c0.008,0.01,0.014,0.02,0.018,0.031s0.007,0.023,0.007,0.036   c0,0.034-0.009,0.069-0.026,0.101c-0.018,0.033-0.038,0.061-0.061,0.084l-0.309,0.338h0.607v-0.168H9.007z M7.967,9.867   c-0.05,0.02-0.095,0.047-0.134,0.08c-0.039,0.035-0.07,0.076-0.092,0.123c-0.023,0.049-0.035,0.102-0.035,0.158   c0,0.061,0.01,0.117,0.031,0.168s0.05,0.096,0.086,0.131c0.038,0.039,0.082,0.066,0.132,0.088c0.052,0.02,0.108,0.029,0.168,0.029   c0.061,0,0.117-0.01,0.168-0.029c0.051-0.021,0.095-0.049,0.132-0.088c0.037-0.035,0.066-0.08,0.087-0.131s0.031-0.107,0.031-0.168   c0-0.057-0.012-0.109-0.035-0.158c-0.022-0.047-0.054-0.088-0.092-0.123c-0.039-0.033-0.083-0.061-0.134-0.08   c-0.05-0.02-0.103-0.029-0.157-0.029S8.018,9.848,7.967,9.867 M8.208,10.046c0.026,0.011,0.048,0.026,0.067,0.044   c0.02,0.02,0.035,0.039,0.046,0.064c0.011,0.023,0.017,0.049,0.017,0.074c0,0.033-0.005,0.064-0.017,0.09   c-0.012,0.027-0.027,0.053-0.046,0.072c-0.019,0.02-0.042,0.035-0.067,0.047c-0.026,0.012-0.054,0.018-0.083,0.018   s-0.057-0.006-0.083-0.018c-0.025-0.012-0.048-0.027-0.068-0.047c-0.019-0.02-0.034-0.045-0.046-0.072   c-0.011-0.025-0.017-0.057-0.017-0.09c0-0.025,0.006-0.051,0.017-0.074c0.012-0.025,0.027-0.045,0.046-0.064   c0.02-0.018,0.042-0.033,0.068-0.044c0.026-0.011,0.054-0.017,0.083-0.017S8.181,10.035,8.208,10.046 M7.337,10.453l0.117-0.109   c0.019-0.016,0.037-0.033,0.052-0.051s0.028-0.035,0.039-0.055s0.019-0.04,0.024-0.063c0.005-0.021,0.008-0.047,0.008-0.072   c0-0.041-0.008-0.078-0.024-0.111C7.537,9.958,7.516,9.93,7.49,9.906C7.463,9.883,7.432,9.865,7.397,9.854   c-0.036-0.014-0.073-0.02-0.112-0.02c-0.045,0-0.085,0.007-0.121,0.021C7.128,9.869,7.097,9.889,7.072,9.914   C7.047,9.939,7.028,9.97,7.013,10.006c-0.015,0.035-0.022,0.075-0.023,0.119h0.216c-0.001-0.012-0.003-0.021-0.003-0.032   c0-0.024,0.007-0.047,0.021-0.065C7.238,10.01,7.259,10,7.286,10c0.013,0,0.024,0.004,0.035,0.01   c0.01,0.004,0.02,0.013,0.028,0.021c0.007,0.01,0.013,0.02,0.018,0.031c0.003,0.012,0.006,0.023,0.006,0.036   c0,0.034-0.009,0.069-0.027,0.101c-0.018,0.033-0.038,0.061-0.06,0.084l-0.309,0.338h0.608v-0.168H7.337z M6.418,10.373H6.92v-0.15   H6.418V10.373z M5.932,9.863l-0.163,0.213c-0.016,0.021-0.031,0.045-0.046,0.068s-0.027,0.048-0.039,0.074   c-0.011,0.025-0.02,0.051-0.026,0.078c-0.006,0.025-0.01,0.053-0.01,0.08c0,0.039,0.01,0.078,0.028,0.115   c0.019,0.035,0.043,0.068,0.073,0.094c0.03,0.023,0.064,0.039,0.103,0.049s0.076,0.016,0.113,0.016   c0.042,0,0.084-0.006,0.124-0.018c0.04-0.014,0.074-0.031,0.104-0.057c0.03-0.023,0.054-0.053,0.072-0.09   c0.018-0.035,0.026-0.076,0.026-0.123c0-0.033-0.006-0.066-0.017-0.1c-0.012-0.031-0.028-0.059-0.049-0.084   s-0.047-0.045-0.077-0.059c-0.03-0.016-0.063-0.022-0.1-0.022c-0.02,0-0.038,0.001-0.054,0.006s-0.034,0.011-0.051,0.017   l-0.002-0.002l0.215-0.256H5.932z M5.916,10.486c-0.015-0.008-0.029-0.018-0.04-0.027c-0.011-0.012-0.02-0.025-0.026-0.039   c-0.007-0.016-0.01-0.033-0.01-0.049c0-0.018,0.003-0.033,0.01-0.049c0.006-0.014,0.016-0.027,0.026-0.039s0.024-0.02,0.04-0.025   c0.015-0.008,0.031-0.012,0.048-0.012s0.034,0.004,0.048,0.012c0.015,0.006,0.027,0.014,0.038,0.025   c0.012,0.012,0.02,0.025,0.026,0.039c0.006,0.016,0.009,0.031,0.009,0.049c0,0.016-0.003,0.033-0.009,0.049   c-0.006,0.014-0.014,0.027-0.026,0.039c-0.011,0.01-0.023,0.02-0.038,0.027c-0.015,0.006-0.031,0.01-0.048,0.01   S5.93,10.492,5.916,10.486 M5.284,10.453l0.117-0.109c0.019-0.016,0.037-0.033,0.051-0.051c0.015-0.018,0.028-0.035,0.039-0.055   c0.01-0.02,0.019-0.04,0.023-0.063c0.006-0.021,0.008-0.047,0.008-0.072c0-0.041-0.008-0.078-0.023-0.111   C5.484,9.958,5.463,9.93,5.437,9.906S5.379,9.865,5.344,9.854c-0.035-0.014-0.073-0.02-0.112-0.02   c-0.045,0-0.085,0.007-0.121,0.021C5.075,9.869,5.045,9.889,5.02,9.914C4.995,9.939,4.975,9.97,4.96,10.006   c-0.015,0.035-0.022,0.075-0.024,0.119h0.217c-0.002-0.012-0.003-0.021-0.003-0.032c0-0.024,0.007-0.047,0.021-0.065   C5.186,10.01,5.206,10,5.232,10c0.013,0,0.025,0.004,0.035,0.01c0.011,0.004,0.02,0.013,0.028,0.021   c0.007,0.01,0.013,0.02,0.018,0.031c0.004,0.012,0.006,0.023,0.006,0.036c0,0.034-0.009,0.069-0.026,0.101   c-0.018,0.033-0.038,0.061-0.06,0.084l-0.309,0.338h0.608v-0.168H5.284z M4.535,10.621l0.161-0.213   c0.016-0.021,0.031-0.043,0.046-0.068c0.015-0.023,0.028-0.047,0.039-0.072c0.011-0.025,0.02-0.052,0.026-0.078   c0.006-0.027,0.01-0.055,0.01-0.082c0-0.039-0.009-0.078-0.027-0.115C4.771,9.955,4.746,9.924,4.716,9.898   C4.687,9.875,4.652,9.859,4.614,9.848C4.575,9.838,4.537,9.834,4.5,9.834c-0.043,0-0.085,0.006-0.124,0.019   c-0.04,0.013-0.074,0.03-0.104,0.054c-0.03,0.025-0.054,0.055-0.071,0.092c-0.018,0.035-0.026,0.076-0.026,0.121   c0,0.035,0.005,0.068,0.017,0.102c0.012,0.031,0.028,0.061,0.049,0.084c0.021,0.025,0.047,0.045,0.077,0.059   c0.03,0.016,0.063,0.023,0.101,0.023c0.021,0,0.038-0.002,0.055-0.006c0.017-0.004,0.034-0.01,0.051-0.018l0.002,0.002   l-0.216,0.256H4.535z M4.55,9.999c0.015,0.006,0.028,0.015,0.04,0.026s0.021,0.025,0.027,0.039c0.006,0.016,0.01,0.031,0.01,0.049   s-0.003,0.033-0.01,0.049c-0.007,0.016-0.016,0.029-0.027,0.039c-0.011,0.012-0.024,0.021-0.04,0.027   c-0.015,0.006-0.031,0.01-0.049,0.01c-0.017,0-0.033-0.004-0.048-0.01c-0.015-0.007-0.027-0.016-0.039-0.027   c-0.011-0.01-0.02-0.023-0.026-0.039S4.38,10.131,4.38,10.113s0.003-0.033,0.009-0.049c0.006-0.014,0.015-0.027,0.026-0.039   s0.024-0.021,0.039-0.026c0.015-0.007,0.031-0.011,0.048-0.011C4.519,9.988,4.535,9.992,4.55,9.999 M3.758,10.031v0.59h0.196V9.863   H3.65v0.168H3.758z"/>
	<path fill="#004A93" d="M14.168,11.492c0.005-0.027,0.018-0.047,0.037-0.061c0.021-0.014,0.044-0.021,0.07-0.021   c0.025,0,0.047,0.008,0.067,0.021c0.019,0.016,0.031,0.035,0.036,0.061H14.168z M14.549,11.578c0-0.043-0.007-0.084-0.02-0.119   s-0.031-0.064-0.056-0.09c-0.024-0.023-0.054-0.043-0.088-0.057c-0.035-0.014-0.074-0.02-0.119-0.02   c-0.042,0-0.081,0.006-0.116,0.02c-0.034,0.012-0.064,0.029-0.089,0.053c-0.025,0.023-0.045,0.053-0.059,0.086   c-0.015,0.035-0.021,0.072-0.021,0.115c0,0.045,0.008,0.084,0.022,0.117c0.016,0.035,0.036,0.063,0.063,0.086   s0.058,0.041,0.095,0.053c0.036,0.012,0.076,0.018,0.118,0.018c0.029,0,0.059-0.002,0.087-0.01   c0.027-0.008,0.054-0.018,0.077-0.031c0.023-0.016,0.044-0.033,0.062-0.057c0.017-0.021,0.029-0.049,0.037-0.078h-0.176   c-0.011,0.018-0.022,0.029-0.037,0.037s-0.031,0.01-0.05,0.01c-0.039,0-0.067-0.01-0.087-0.029   c-0.019-0.018-0.028-0.047-0.028-0.084h0.385V11.578z M13.304,10.99v0.834h0.183v-0.264c0-0.016,0.002-0.029,0.005-0.045   s0.009-0.027,0.016-0.039c0.008-0.012,0.018-0.021,0.029-0.029c0.012-0.006,0.027-0.01,0.046-0.01c0.018,0,0.032,0.004,0.043,0.01   c0.011,0.008,0.02,0.018,0.025,0.029s0.009,0.023,0.011,0.039s0.003,0.029,0.003,0.045v0.264h0.182V11.51   c0-0.033-0.003-0.063-0.012-0.09c-0.008-0.025-0.02-0.049-0.035-0.068c-0.017-0.02-0.036-0.033-0.061-0.045   c-0.024-0.01-0.053-0.014-0.086-0.014c-0.035,0-0.066,0.006-0.093,0.02s-0.05,0.035-0.071,0.063h-0.002V10.99H13.304z    M13.138,11.322c-0.018-0.01-0.037-0.018-0.057-0.021c-0.021-0.006-0.042-0.008-0.063-0.008c-0.041,0-0.078,0.006-0.113,0.02   s-0.066,0.033-0.092,0.059c-0.026,0.023-0.047,0.053-0.062,0.088c-0.015,0.033-0.021,0.072-0.021,0.113   c0,0.039,0.007,0.074,0.021,0.107c0.015,0.031,0.035,0.061,0.062,0.084c0.024,0.025,0.055,0.043,0.088,0.057   c0.035,0.014,0.07,0.02,0.108,0.02c0.021,0,0.044,0,0.066-0.006c0.021-0.006,0.042-0.012,0.062-0.021v-0.154   c-0.012,0.01-0.025,0.02-0.042,0.025s-0.032,0.01-0.049,0.01c-0.038,0-0.069-0.012-0.093-0.035s-0.035-0.055-0.035-0.092   c0-0.02,0.003-0.035,0.009-0.051c0.007-0.014,0.016-0.027,0.026-0.039c0.012-0.012,0.025-0.02,0.041-0.025   c0.016-0.008,0.031-0.01,0.049-0.01s0.034,0.002,0.051,0.01c0.016,0.008,0.029,0.016,0.043,0.025V11.322z M12.437,11.309h-0.183   v0.516h0.183v-0.207c0-0.023,0.002-0.043,0.006-0.063c0.003-0.02,0.01-0.035,0.02-0.049c0.009-0.014,0.021-0.025,0.038-0.033   s0.038-0.012,0.063-0.012c0.015,0,0.027,0,0.04,0.004c0.012,0,0.024,0.006,0.037,0.012v-0.174h-0.035   c-0.036,0-0.068,0.006-0.097,0.021c-0.028,0.014-0.052,0.037-0.069,0.07h-0.002V11.309z M12.082,11.309h-0.183v0.516h0.183V11.309z    M11.951,11.018c-0.013,0.006-0.022,0.014-0.033,0.021c-0.009,0.01-0.017,0.021-0.021,0.033s-0.009,0.025-0.009,0.039   s0.004,0.027,0.009,0.039c0.005,0.014,0.013,0.023,0.021,0.033c0.011,0.01,0.021,0.018,0.033,0.023   c0.013,0.004,0.025,0.008,0.04,0.008c0.014,0,0.026-0.004,0.039-0.008c0.013-0.006,0.023-0.014,0.033-0.023   c0.009-0.01,0.017-0.02,0.021-0.033c0.006-0.012,0.008-0.025,0.008-0.039s-0.002-0.027-0.008-0.039   c-0.005-0.012-0.013-0.023-0.021-0.033c-0.01-0.008-0.021-0.016-0.033-0.021s-0.025-0.008-0.039-0.008   C11.977,11.01,11.964,11.012,11.951,11.018 M11.284,11.379h-0.002v-0.313h-0.197v0.758h0.197v-0.328h0.002l0.254,0.328h0.255   l-0.328-0.398l0.301-0.359h-0.243L11.284,11.379z M10.173,11.492c0.005-0.027,0.018-0.047,0.038-0.061   c0.02-0.014,0.043-0.021,0.07-0.021c0.025,0,0.047,0.008,0.066,0.021c0.02,0.016,0.031,0.035,0.037,0.061H10.173z M10.554,11.578   c0-0.043-0.007-0.084-0.02-0.119s-0.03-0.064-0.054-0.09c-0.025-0.023-0.055-0.043-0.09-0.057s-0.074-0.02-0.118-0.02   c-0.042,0-0.081,0.006-0.116,0.02c-0.035,0.012-0.064,0.029-0.09,0.053s-0.045,0.053-0.059,0.086   c-0.014,0.035-0.021,0.072-0.021,0.115c0,0.045,0.008,0.084,0.023,0.117c0.016,0.035,0.035,0.063,0.063,0.086   c0.025,0.023,0.059,0.041,0.094,0.053c0.036,0.012,0.076,0.018,0.119,0.018c0.029,0,0.058-0.002,0.086-0.01   c0.029-0.008,0.054-0.018,0.078-0.031c0.023-0.016,0.045-0.033,0.061-0.057c0.018-0.021,0.029-0.049,0.037-0.078h-0.176   c-0.01,0.018-0.021,0.029-0.037,0.037c-0.014,0.008-0.031,0.01-0.05,0.01c-0.038,0-0.067-0.01-0.087-0.029   c-0.019-0.018-0.027-0.047-0.027-0.084h0.384V11.578z M9.309,10.99v0.834h0.183v-0.264c0-0.016,0.002-0.029,0.005-0.045   s0.009-0.027,0.016-0.039c0.008-0.012,0.018-0.021,0.029-0.029c0.014-0.006,0.028-0.01,0.046-0.01c0.019,0,0.032,0.004,0.044,0.01   c0.01,0.008,0.02,0.018,0.025,0.029s0.008,0.023,0.01,0.039s0.003,0.029,0.003,0.045v0.264h0.183V11.51   c0-0.033-0.004-0.063-0.012-0.09c-0.008-0.025-0.02-0.049-0.036-0.068s-0.036-0.033-0.06-0.045   c-0.025-0.01-0.053-0.014-0.086-0.014c-0.036,0-0.067,0.006-0.094,0.02c-0.025,0.014-0.05,0.035-0.07,0.063H9.491V10.99H9.309z    M9.145,11.322c-0.02-0.01-0.038-0.018-0.059-0.021c-0.021-0.006-0.041-0.008-0.063-0.008c-0.04,0-0.078,0.006-0.113,0.02   s-0.065,0.033-0.092,0.059c-0.025,0.023-0.046,0.053-0.061,0.088c-0.015,0.033-0.022,0.072-0.022,0.113   c0,0.039,0.008,0.074,0.022,0.107c0.015,0.031,0.035,0.061,0.061,0.084c0.025,0.025,0.055,0.043,0.089,0.057s0.07,0.02,0.108,0.02   c0.021,0,0.044,0,0.065-0.006c0.022-0.006,0.043-0.012,0.063-0.021v-0.154c-0.014,0.01-0.027,0.02-0.044,0.025   s-0.032,0.01-0.049,0.01c-0.038,0-0.068-0.012-0.092-0.035c-0.024-0.023-0.036-0.055-0.036-0.092c0-0.02,0.004-0.035,0.01-0.051   c0.006-0.014,0.016-0.027,0.026-0.039c0.012-0.012,0.024-0.02,0.04-0.025c0.016-0.008,0.031-0.01,0.049-0.01   s0.035,0.002,0.051,0.01s0.031,0.016,0.045,0.025V11.322z M8.611,11.324c-0.026-0.012-0.054-0.02-0.083-0.023   c-0.028-0.006-0.058-0.008-0.087-0.008c-0.028,0-0.056,0.002-0.083,0.01c-0.027,0.008-0.052,0.018-0.073,0.033   c-0.021,0.016-0.039,0.035-0.052,0.057c-0.013,0.023-0.02,0.051-0.02,0.082c0,0.023,0.003,0.043,0.01,0.059   c0.007,0.014,0.016,0.027,0.026,0.037c0.011,0.012,0.023,0.02,0.037,0.025s0.028,0.01,0.042,0.014   c0.014,0.006,0.028,0.008,0.042,0.012c0.013,0.002,0.026,0.006,0.037,0.008c0.01,0.004,0.019,0.01,0.026,0.016   s0.01,0.014,0.01,0.023c0,0.008-0.002,0.014-0.006,0.018s-0.008,0.008-0.014,0.012s-0.012,0.006-0.019,0.008   c-0.007,0-0.013,0.002-0.02,0.002c-0.011,0-0.023-0.002-0.036-0.006c-0.014-0.002-0.026-0.006-0.039-0.012   c-0.013-0.004-0.025-0.01-0.037-0.016c-0.012-0.006-0.023-0.012-0.032-0.02l-0.066,0.127c0.031,0.02,0.064,0.035,0.1,0.045   s0.071,0.014,0.108,0.014c0.03,0,0.06-0.002,0.088-0.01c0.029-0.008,0.055-0.02,0.078-0.035c0.023-0.014,0.042-0.035,0.056-0.059   s0.021-0.053,0.021-0.086c0-0.025-0.004-0.045-0.012-0.063s-0.019-0.031-0.031-0.043c-0.014-0.014-0.03-0.021-0.048-0.031   c-0.018-0.008-0.038-0.014-0.059-0.018c-0.006,0-0.014-0.002-0.023-0.004s-0.018-0.004-0.027-0.006   c-0.009-0.004-0.017-0.008-0.023-0.014s-0.009-0.012-0.009-0.021c0-0.006,0.002-0.012,0.006-0.016   c0.004-0.006,0.009-0.008,0.015-0.012c0.006-0.002,0.012-0.004,0.019-0.006c0.007,0,0.013-0.002,0.018-0.002   c0.016,0,0.032,0.002,0.05,0.008c0.019,0.006,0.034,0.012,0.048,0.018L8.611,11.324z M8.045,11.309H7.862v0.516h0.183V11.309z    M7.915,11.018c-0.013,0.006-0.023,0.014-0.033,0.021c-0.009,0.01-0.017,0.021-0.022,0.033s-0.008,0.025-0.008,0.039   s0.002,0.027,0.008,0.039c0.005,0.014,0.013,0.023,0.022,0.033s0.02,0.018,0.033,0.023c0.012,0.004,0.025,0.008,0.039,0.008   c0.014,0,0.028-0.004,0.04-0.008c0.012-0.006,0.023-0.014,0.032-0.023s0.017-0.02,0.022-0.033c0.005-0.012,0.008-0.025,0.008-0.039   s-0.003-0.027-0.008-0.039c-0.005-0.012-0.013-0.023-0.022-0.033c-0.009-0.008-0.021-0.016-0.032-0.021   c-0.012-0.006-0.026-0.008-0.04-0.008C7.94,11.01,7.926,11.012,7.915,11.018 M7.334,11.309H7.152v0.516h0.182v-0.268   c0-0.016,0.001-0.031,0.005-0.045c0.003-0.014,0.008-0.027,0.015-0.039c0.007-0.01,0.018-0.02,0.029-0.025s0.027-0.01,0.046-0.01   c0.023,0,0.04,0.004,0.051,0.014s0.02,0.021,0.024,0.035c0.005,0.014,0.007,0.029,0.007,0.045v0.041v0.252h0.183v-0.318   c0-0.031-0.004-0.061-0.011-0.088c-0.007-0.025-0.019-0.047-0.034-0.066c-0.016-0.02-0.036-0.033-0.06-0.045   c-0.024-0.01-0.054-0.014-0.089-0.014c-0.036,0-0.067,0.006-0.093,0.018s-0.05,0.033-0.071,0.064H7.334V11.309z M6.622,11.309   H6.439v0.516h0.183v-0.268c0-0.016,0.001-0.031,0.004-0.045s0.008-0.027,0.016-0.039c0.007-0.01,0.017-0.02,0.029-0.025   c0.012-0.006,0.027-0.01,0.046-0.01c0.022,0,0.04,0.004,0.051,0.014s0.019,0.021,0.024,0.035c0.004,0.014,0.007,0.029,0.007,0.045   v0.041v0.252h0.183v-0.318c0-0.031-0.003-0.061-0.011-0.088c-0.007-0.025-0.018-0.047-0.034-0.066s-0.036-0.033-0.06-0.045   c-0.024-0.01-0.054-0.014-0.088-0.014c-0.036,0-0.067,0.006-0.093,0.018s-0.05,0.033-0.071,0.064H6.622V11.309z M6.023,11.461   c0.014,0.006,0.027,0.014,0.037,0.025c0.01,0.01,0.018,0.021,0.022,0.035c0.006,0.014,0.009,0.029,0.009,0.045   c0,0.033-0.01,0.061-0.031,0.084c-0.021,0.021-0.049,0.031-0.086,0.031c-0.038,0-0.067-0.01-0.087-0.031   c-0.021-0.023-0.03-0.051-0.03-0.084c0-0.016,0.003-0.031,0.008-0.045c0.005-0.014,0.013-0.025,0.023-0.035   c0.01-0.012,0.022-0.02,0.037-0.025c0.015-0.008,0.031-0.01,0.05-0.01C5.992,11.451,6.009,11.453,6.023,11.461 M6.268,11.309H6.085   v0.051c-0.02-0.023-0.044-0.039-0.072-0.051s-0.058-0.016-0.088-0.016c-0.038,0-0.073,0.008-0.104,0.021   c-0.032,0.016-0.059,0.033-0.081,0.059c-0.023,0.025-0.041,0.055-0.053,0.088c-0.013,0.033-0.02,0.068-0.02,0.105   s0.007,0.072,0.02,0.105c0.012,0.033,0.031,0.063,0.053,0.086c0.023,0.025,0.051,0.047,0.083,0.061   c0.031,0.016,0.066,0.021,0.105,0.021c0.03,0,0.06-0.006,0.088-0.018c0.029-0.012,0.051-0.029,0.067-0.055h0.003v0.057h0.182   V11.309z M4.989,10.99v0.834h0.183v-0.264c0-0.016,0.002-0.029,0.004-0.045c0.003-0.016,0.008-0.027,0.016-0.039   c0.008-0.012,0.018-0.021,0.03-0.029c0.012-0.006,0.027-0.01,0.045-0.01c0.018,0,0.032,0.004,0.043,0.01   c0.011,0.008,0.019,0.018,0.025,0.029c0.005,0.012,0.009,0.023,0.011,0.039c0.002,0.016,0.003,0.029,0.003,0.045v0.264h0.182V11.51   c0-0.033-0.004-0.063-0.012-0.09c-0.008-0.025-0.02-0.049-0.036-0.068c-0.017-0.02-0.037-0.033-0.061-0.045   c-0.024-0.01-0.052-0.014-0.085-0.014c-0.036,0-0.067,0.006-0.094,0.02c-0.026,0.014-0.049,0.035-0.071,0.063H5.172V10.99H4.989z    M4.425,11.311c-0.037,0.012-0.07,0.029-0.099,0.053c-0.029,0.023-0.051,0.053-0.068,0.086c-0.017,0.035-0.025,0.074-0.025,0.117   c0,0.045,0.008,0.084,0.025,0.117c0.017,0.033,0.039,0.063,0.068,0.086c0.029,0.023,0.062,0.041,0.099,0.053   s0.077,0.018,0.118,0.018c0.041,0,0.081-0.006,0.118-0.018c0.038-0.012,0.071-0.029,0.099-0.053s0.051-0.053,0.067-0.086   c0.017-0.033,0.025-0.072,0.025-0.117c0-0.043-0.008-0.082-0.025-0.117c-0.017-0.033-0.039-0.063-0.067-0.086   s-0.062-0.041-0.099-0.053c-0.037-0.012-0.077-0.018-0.118-0.018C4.502,11.293,4.462,11.299,4.425,11.311 M4.593,11.461   c0.015,0.006,0.027,0.014,0.037,0.025c0.01,0.01,0.018,0.021,0.023,0.035s0.008,0.029,0.008,0.045c0,0.033-0.01,0.061-0.031,0.084   c-0.021,0.021-0.049,0.031-0.086,0.031c-0.038,0-0.067-0.01-0.087-0.031c-0.02-0.023-0.03-0.051-0.03-0.084   c0-0.016,0.003-0.031,0.008-0.045c0.005-0.014,0.013-0.025,0.023-0.035c0.01-0.012,0.022-0.02,0.037-0.025   c0.014-0.008,0.031-0.01,0.05-0.01C4.562,11.451,4.579,11.453,4.593,11.461 M3.898,11.066v0.5c0,0.01,0,0.021,0,0.035   c0,0.012-0.002,0.025-0.005,0.035c-0.003,0.012-0.009,0.021-0.017,0.029c-0.007,0.008-0.018,0.012-0.033,0.012   c-0.014,0-0.027-0.008-0.041-0.021s-0.027-0.027-0.038-0.043L3.65,11.732c0.022,0.035,0.05,0.063,0.083,0.082   c0.032,0.02,0.07,0.029,0.112,0.029c0.042,0,0.079-0.006,0.11-0.02c0.031-0.012,0.057-0.031,0.078-0.055   c0.021-0.023,0.037-0.051,0.047-0.082c0.01-0.033,0.016-0.07,0.016-0.109v-0.512H3.898z"/>
</g>
</svg>