<svg xmlns="http://www.w3.org/2000/svg" version="1.1" xmlns:xlink="http://www.w3.org/1999/xlink" width="12.31" height="6.58"><svg xmlns="http://www.w3.org/2000/svg" xmlns:xlink="http://www.w3.org/1999/xlink" version="1.1" id="SvgjsSvg1017" x="0px" y="0px" enable-background="new 0 0 16 16" xml:space="preserve" viewBox="1.91 3.29 12.31 6.58">
<g>
	<defs>
		<rect id="SvgjsRect1016" x="-0.077" y="1.425" width="24.421" height="15.184"></rect>
	</defs>
	<clipPath id="SvgjsClipPath1015">
		<use xlink:href="#SVGID_1_" overflow="visible"></use>
	</clipPath>
	<path clip-path="url(#SVGID_2_)" fill="#004A93" d="M3.919,6.575c0,1.813,1.47,3.285,3.284,3.285c1.813,0,3.284-1.471,3.284-3.285   c0-1.814-1.472-3.285-3.284-3.285C5.389,3.29,3.919,4.76,3.919,6.575"></path>
</g>
<polygon fill="#5782C2" points="3.919,9.869 3.919,3.3 3.91,3.3 1.914,6.568 1.914,9.869 "></polygon>
<g>
	<defs>
		<rect id="SvgjsRect1014" x="-0.077" y="1.425" width="24.421" height="15.184"></rect>
	</defs>
	<clipPath id="SvgjsClipPath1013">
		<use xlink:href="#SVGID_3_" overflow="visible"></use>
	</clipPath>
	<path clip-path="url(#SVGID_4_)" fill="#DD6A78" d="M10.94,3.286c1.811,0,3.279,1.471,3.279,3.284H7.662   C7.662,4.757,9.129,3.286,10.94,3.286"></path>
	<path clip-path="url(#SVGID_4_)" fill="#389D8A" d="M7.219,3.286c1.818,0,3.292,1.471,3.292,3.284H3.928   C3.928,4.757,5.401,3.286,7.219,3.286"></path>
	<path clip-path="url(#SVGID_4_)" fill="#FBBA00" d="M10.931,9.855c1.812,0,3.279-1.472,3.279-3.285H7.651   C7.651,8.384,9.119,9.855,10.931,9.855"></path>
	<path clip-path="url(#SVGID_4_)" fill="#FFFFFF" d="M7.705,5.119c0,0.017,0.003,0.032,0.01,0.047   C7.734,5.21,7.777,5.241,7.829,5.241c0.069,0,0.123-0.055,0.123-0.122c0.001-0.068-0.057-0.125-0.124-0.125   S7.706,5.051,7.705,5.119 M3.916,6.556c0-0.166,0.014-0.33,0.04-0.494c0.007-0.04,0.014-0.079,0.023-0.12   C4.154,6.006,4.326,6.068,4.498,6.13c-0.004-0.009-0.011-0.015-0.02-0.02c-0.145-0.116-0.29-0.231-0.436-0.347   C4.025,5.75,4.022,5.74,4.028,5.719c0.054-0.2,0.128-0.394,0.219-0.581c0.032-0.063,0.066-0.127,0.101-0.192   c0.244,0.202,0.484,0.399,0.724,0.599C5.069,5.534,5.065,5.528,5.06,5.521C4.872,5.266,4.685,5.01,4.497,4.754   c-0.013-0.017-0.014-0.028,0-0.047c0.076-0.115,0.167-0.225,0.279-0.346C4.837,4.29,4.908,4.226,4.978,4.157   c0.158,0.302,0.313,0.6,0.469,0.898c-0.014-0.107-0.031-0.214-0.05-0.321C5.353,4.473,5.309,4.209,5.263,3.947   C5.262,3.931,5.265,3.921,5.279,3.912c0.185-0.133,0.38-0.247,0.587-0.338c0.065-0.03,0.132-0.056,0.203-0.086   c0.012,0.387,0.022,0.767,0.033,1.148C6.107,4.63,6.11,4.625,6.111,4.62c0.14-0.411,0.28-0.822,0.421-1.234   c0.006-0.019,0.012-0.033,0.036-0.037c0.306-0.06,0.616-0.079,0.927-0.05c0.066,0.005,0.133,0.014,0.199,0.022   c0,0.006,0,0.009,0,0.01C7.687,3.34,7.68,3.349,7.673,3.358c-0.269,0.354-0.522,0.72-0.745,1.105   C6.777,4.726,6.64,4.996,6.542,5.284C6.49,5.435,6.451,5.59,6.456,5.752C6.458,5.84,6.465,5.93,6.473,6.019   c0.006,0.055,0.015,0.111,0.028,0.164C6.51,6.221,6.535,6.23,6.568,6.207c0.035-0.024,0.071-0.05,0.098-0.083   C6.71,6.069,6.751,6.012,6.787,5.952c0.15-0.246,0.296-0.493,0.444-0.739C7.3,5.099,7.378,4.992,7.477,4.901   c0.148-0.135,0.319-0.17,0.509-0.1C8.084,4.839,8.16,4.907,8.231,4.984c0.037,0.04,0.074,0.081,0.113,0.12   C8.369,5.13,8.402,5.142,8.439,5.142c0.044,0.002,0.09,0.003,0.136,0.008c0.05,0.004,0.117,0.008,0.155,0.017   c0.038,0.007,0.07,0.013,0.063,0.018C8.685,5.244,8.48,5.307,8.369,5.363C8.331,5.382,8.313,5.405,8.31,5.45   C8.297,5.608,8.271,5.766,8.285,5.925C8.293,6.009,8.307,6.092,8.342,6.17c0.055,0.124,0.195,0.151,0.281,0.116   c0.048-0.021,0.094-0.05,0.133-0.084c0.131-0.115,0.257-0.236,0.386-0.354C9.336,5.669,9.505,5.47,9.634,5.241   c0.094-0.168,0.186-0.337,0.277-0.506c0.005-0.008,0.012-0.021,0.017-0.029l0.006,0.008c0.004,0.006,0.008,0.013,0.013,0.02   c0.196,0.291,0.343,0.604,0.438,0.942v0.005c-0.276,0.246-0.568,0.537-0.844,0.783c-0.028,0.025-0.058,0.05-0.084,0.075   c0.001,0,0.001,0.002,0.002,0.002c0.328-0.205,0.658-0.411,0.991-0.618C10.461,6,10.475,6.071,10.484,6.143   c0.021,0.156,0.032,0.267,0.028,0.425l-0.028,0.011c-0.301,0.146-0.604,0.37-0.905,0.519C9.573,7.1,9.567,7.104,9.557,7.11   c0.306,0.007,0.607,0.016,0.906,0.023c0,0.006,0,0.01,0,0.013c-0.031,0.173-0.074,0.342-0.132,0.509l-0.013,0.029   C10.107,7.692,9.86,7.711,9.649,7.721C9.598,7.725,9.546,7.727,9.496,7.73L9.495,7.734c0.225,0.1,0.449,0.199,0.68,0.3   c-0.065,0.111-0.128,0.221-0.191,0.329C9.978,8.372,9.967,8.377,9.957,8.382C9.823,8.462,9.681,8.52,9.531,8.566   C9.355,8.62,9.175,8.652,8.991,8.671C8.854,8.684,8.717,8.686,8.581,8.66C8.24,8.601,7.926,8.472,7.632,8.289   c-0.008-0.005-0.018-0.01-0.026-0.015C7.602,8.282,7.599,8.288,7.595,8.293C7.467,8.557,7.338,8.82,7.21,9.084   C7.091,9.328,6.972,9.576,6.853,9.82c-0.009,0.021-0.02,0.027-0.041,0.023c-0.039-0.008-0.077-0.01-0.116-0.018   C6.617,9.813,6.539,9.797,6.458,9.781c0.01-0.172,0.021-0.342,0.032-0.51c-0.001,0-0.001,0-0.002-0.002   C6.437,9.43,6.384,9.588,6.332,9.748C6.188,9.709,6.051,9.66,5.917,9.602C5.912,9.6,5.908,9.586,5.909,9.58   c0.002-0.023,0.008-0.047,0.012-0.07c0.012-0.072,0.025-0.143,0.039-0.219c-0.013,0.008-0.021,0.014-0.029,0.02   C5.857,9.367,5.783,9.424,5.71,9.48C5.698,9.49,5.688,9.496,5.672,9.486C5.556,9.426,5.434,9.357,5.305,9.26   C5.302,9.258,5.297,9.256,5.292,9.252C5.469,9.084,5.641,8.92,5.813,8.757c-0.007,0-0.014,0.003-0.02,0.006   c-0.209,0.12-0.418,0.239-0.627,0.36c-0.02,0.012-0.031,0.01-0.048-0.004C4.982,9.006,4.857,8.884,4.741,8.753   C4.704,8.709,4.668,8.664,4.628,8.617C4.638,8.614,4.644,8.612,4.65,8.61c0.062-0.017,0.123-0.033,0.183-0.051   c0.265-0.077,0.513-0.186,0.734-0.351C5.716,8.099,5.862,7.99,6.009,7.88c0.052-0.039,0.102-0.079,0.156-0.119   c-0.166,0.014-0.328,0.016-0.489,0c-0.163-0.016-0.323-0.048-0.478-0.1C4.879,7.554,4.61,7.369,4.376,7.131   C4.21,6.962,4.069,6.776,3.925,6.591C3.918,6.582,3.916,6.568,3.916,6.556"></path>
</g>
</svg><style>@media (prefers-color-scheme: light) { :root { filter: none; } }
@media (prefers-color-scheme: dark) { :root { filter: none; } }
</style></svg>